<?xml version="1.0" encoding="UTF-8"?>
<svg version="1.1" xmlns="http://www.w3.org/2000/svg" width="500" height="500">
<path d="M0 0 C1.56922602 13.28158056 2.81453213 26.58015009 3.91479492 39.90844727 C4.19033077 43.2215377 4.47700426 46.53355959 4.76367188 49.84570312 C4.94078765 51.97390156 5.1172444 54.10215497 5.29296875 56.23046875 C5.37935104 57.20968796 5.46573334 58.18890717 5.55473328 59.19779968 C6.35005001 69.15113129 6.35005001 69.15113129 5 74 C1.97917932 77.0307261 -1.55717469 79.03140159 -5.26171875 81.14453125 C-6.28475098 81.73113525 -7.3077832 82.31773926 -8.36181641 82.92211914 C-10.00802979 83.85785767 -10.00802979 83.85785767 -11.6875 84.8125 C-12.84840575 85.47667579 -14.00904553 86.14131665 -15.16943359 86.80639648 C-17.57951977 88.18722404 -19.99073297 89.56605121 -22.40283203 90.94335938 C-27.98635166 94.13329852 -33.55550958 97.34814932 -39.125 100.5625 C-40.19951416 101.1822168 -41.27402832 101.80193359 -42.38110352 102.44042969 C-53.61039894 108.92091718 -64.80668083 115.45763424 -76 122 C-79.95785474 124.31332038 -83.91610663 126.62595749 -87.875 128.9375 C-88.86218018 129.51395264 -89.84936035 130.09040527 -90.86645508 130.68432617 C-98.16611349 134.94201655 -105.48700606 139.16196052 -112.8125 143.375 C-121.70896957 148.49286153 -130.55650839 153.68650656 -139.375 158.9375 C-152.10293256 166.51462348 -164.93716257 173.89315967 -177.83544922 181.17626953 C-180.02260884 182.43672952 -182.19003503 183.73183415 -184.34033203 185.05419922 C-185.40493652 185.70533691 -186.46954102 186.35647461 -187.56640625 187.02734375 C-188.51588135 187.621521 -189.46535645 188.21569824 -190.44360352 188.82788086 C-193 190 -193 190 -195.27709961 189.81079102 C-197 189 -197 189 -198 187 C-198.23423066 185.18223129 -198.41600689 183.35759762 -198.57250977 181.53149414 C-198.67253799 180.38592545 -198.77256622 179.24035675 -198.87562561 178.06007385 C-198.97983322 176.81435104 -199.08404083 175.56862823 -199.19140625 174.28515625 C-199.30097153 173.0045079 -199.4105368 171.72385956 -199.52342224 170.40440369 C-199.7555571 167.685108 -199.98464612 164.96557661 -200.21166992 162.24584961 C-200.50047302 158.78928791 -200.79705036 155.33344748 -201.09605503 151.87775517 C-201.38231041 148.55559711 -201.66149853 145.23285516 -201.94140625 141.91015625 C-202.04763809 140.68265152 -202.15386993 139.45514679 -202.26332092 138.19044495 C-202.54353447 134.79483465 -202.78712115 131.40045701 -203 128 C-203.06782684 126.96575897 -203.13565369 125.93151794 -203.20553589 124.86593628 C-203.47143988 117.84056933 -203.47143988 117.84056933 -201.32714844 114.01733398 C-198.90005778 111.91336314 -196.56823809 110.29339215 -193.765625 108.72265625 C-192.72905762 108.13411865 -191.69249023 107.54558105 -190.62451172 106.93920898 C-189.51092285 106.31989502 -188.39733398 105.70058105 -187.25 105.0625 C-186.07893303 104.40098235 -184.90853249 103.7382837 -183.73876953 103.07446289 C-181.33405315 101.71041101 -178.92705982 100.35051352 -176.51855469 98.99316406 C-171.27218685 96.0293837 -166.07423096 92.98297349 -160.875 89.9375 C-158.8907078 88.77850406 -156.90633277 87.61964993 -154.921875 86.4609375 C-152.94786881 85.30737356 -150.97391041 84.15372783 -149 83 C-145.04214526 80.68667962 -141.08389337 78.37404251 -137.125 76.0625 C-136.13781982 75.48604736 -135.15063965 74.90959473 -134.13354492 74.31567383 C-126.83388651 70.05798345 -119.51299394 65.83803948 -112.1875 61.625 C-103.29103111 56.50713886 -94.4434719 51.31352536 -85.625 46.0625 C-75.89479202 40.26952079 -66.10163717 34.60313204 -56.25640869 29.00933838 C-45.12190812 22.67962492 -34.09616285 16.17732606 -23.09375 9.62109375 C-22.08957031 9.02796387 -21.08539063 8.43483398 -20.05078125 7.82373047 C-17.92923258 6.55548715 -15.82338851 5.26075201 -13.73046875 3.94580078 C-12.67472656 3.29466309 -11.61898437 2.64352539 -10.53125 1.97265625 C-9.58830078 1.378479 -8.64535156 0.78430176 -7.67382812 0.17211914 C-4.58286197 -1.18285972 -3.16604933 -1.00786861 0 0 Z " fill="#FF914C" transform="translate(262,27)"/>
<path d="M0 0 C1.41529008 4.58059583 2.32826816 8.79028819 2.73364258 13.59033203 C2.89809624 15.48732346 2.89809624 15.48732346 3.06587219 17.42263794 C3.17608076 18.78430989 3.28561774 20.14603635 3.39453125 21.5078125 C3.51082377 22.9207368 3.62725574 24.33364962 3.74382019 25.74655151 C3.98511625 28.69635917 4.22027071 31.64658676 4.4519043 34.59716797 C4.74941228 38.37239954 5.06911835 42.1453988 5.39426136 45.91833687 C5.64160673 48.83085259 5.87370532 51.7444387 6.10159874 54.658535 C6.21294173 56.05040272 6.32979626 57.44184126 6.45234108 58.83276749 C6.62200147 60.77666739 6.76816483 62.72257458 6.91333008 64.66845703 C7.00278397 65.77319366 7.09223785 66.8779303 7.18440247 68.0161438 C6.96918123 71.49868512 6.04926484 73.21329201 4 76 C2.19750977 77.53710938 2.19750977 77.53710938 0.12890625 78.84375 C-0.67015137 79.3490625 -1.46920898 79.854375 -2.29248047 80.375 C-6.9137787 83.14861235 -11.57788902 85.84065608 -16.27185059 88.48931885 C-19.37943685 90.24330756 -22.48034649 92.00904066 -25.58203125 93.7734375 C-26.2095932 94.13009491 -26.83715515 94.48675232 -27.48373413 94.85421753 C-33.4298495 98.23672208 -39.34469138 101.67176681 -45.25 105.125 C-46.71215942 105.97976929 -46.71215942 105.97976929 -48.20385742 106.85180664 C-50.16054534 107.99635795 -52.11700849 109.14129362 -54.07324219 110.28662109 C-59.00508069 113.17381184 -63.9396018 116.05639926 -68.875 118.9375 C-69.86234131 119.5140332 -70.84968262 120.09056641 -71.86694336 120.68457031 C-79.16640213 124.94224279 -86.48716354 129.16205109 -93.8125 133.375 C-102.70897061 138.49286212 -111.55646714 143.68657508 -120.375 148.9375 C-130.74515035 155.11002975 -141.18671814 161.14119685 -151.67504883 167.10961914 C-159.66222827 171.65672271 -167.62343219 176.24453011 -175.5625 180.875 C-177.07976685 181.75889404 -177.07976685 181.75889404 -178.62768555 182.66064453 C-182.13784418 184.71161271 -185.61658456 186.74438971 -189 189 C-191.6875 189.125 -191.6875 189.125 -194 189 C-195.41529008 184.41940417 -196.32826816 180.20971181 -196.73364258 175.40966797 C-196.89809624 173.51267654 -196.89809624 173.51267654 -197.06587219 171.57736206 C-197.17608076 170.21569011 -197.28561774 168.85396365 -197.39453125 167.4921875 C-197.51082377 166.0792632 -197.62725574 164.66635038 -197.74382019 163.25344849 C-197.98511625 160.30364083 -198.22027071 157.35341324 -198.4519043 154.40283203 C-198.74941228 150.62760046 -199.06911835 146.8546012 -199.39426136 143.08166313 C-199.64160673 140.16914741 -199.87370532 137.2555613 -200.10159874 134.341465 C-200.21294173 132.94959728 -200.32979626 131.55815874 -200.45234108 130.16723251 C-200.62200147 128.22333261 -200.76816483 126.27742542 -200.91333008 124.33154297 C-201.00278397 123.22680634 -201.09223785 122.1220697 -201.18440247 120.9838562 C-200.96918123 117.50131488 -200.04926484 115.78670799 -198 113 C-196.19750977 111.46289062 -196.19750977 111.46289062 -194.12890625 110.15625 C-193.32984863 109.6509375 -192.53079102 109.145625 -191.70751953 108.625 C-187.0862213 105.85138765 -182.42211098 103.15934392 -177.72814941 100.51068115 C-174.62056315 98.75669244 -171.51965351 96.99095934 -168.41796875 95.2265625 C-167.7904068 94.86990509 -167.16284485 94.51324768 -166.51626587 94.14578247 C-160.5701505 90.76327792 -154.65530862 87.32823319 -148.75 83.875 C-147.77522705 83.30515381 -146.8004541 82.73530762 -145.79614258 82.14819336 C-143.83945466 81.00364205 -141.88299151 79.85870638 -139.92675781 78.71337891 C-125.55043686 70.29721103 -111.15029945 61.9239385 -96.71582031 53.60791016 C-85.4520275 47.11500122 -74.22447236 40.56057444 -63 34 C-59.04214526 31.68667962 -55.08388011 29.37406523 -51.125 27.0625 C-50.15159668 26.49402344 -49.17819336 25.92554688 -48.17529297 25.33984375 C-42.78965673 22.19829615 -37.39602201 19.07107373 -31.9921875 15.9609375 C-31.11410934 15.45538582 -31.11410934 15.45538582 -30.21829224 14.93962097 C-27.38914279 13.31112885 -24.55890493 11.6845761 -21.72705078 10.06079102 C-16.60728923 7.11731092 -11.54269818 4.14688758 -6.62109375 0.88037109 C-4.36802088 -0.34321035 -2.50330758 -0.39114181 0 0 Z " fill="#FF914C" transform="translate(415,192)"/>
<path d="M0 0 C0.598125 0.20625 1.19625 0.4125 1.8125 0.625 C4.22992036 7.53459385 4.61602708 14.62571787 5.20703125 21.87890625 C5.32334104 23.26701343 5.43977275 24.65511039 5.55632019 26.04319763 C5.79761508 28.94172367 6.03275398 31.84067842 6.2644043 34.73999023 C6.56164964 38.44567606 6.8814453 42.14904447 7.20676136 45.85235691 C7.45440261 48.71426335 7.68638653 51.57728515 7.91409874 54.44083977 C8.02528575 55.80678257 8.1421224 57.17227826 8.26484108 58.53723335 C8.43494109 60.44733921 8.5808641 62.35955089 8.72583008 64.27172852 C8.81528397 65.35647964 8.90473785 66.44123077 8.99690247 67.55885315 C8.77538631 71.24210689 7.71141894 73.48605615 5.8125 76.625 C3.6496582 78.36914062 3.6496582 78.36914062 1.11328125 79.78125 C0.16404785 80.32128662 -0.78518555 80.86132324 -1.76318359 81.41772461 C-2.79008301 81.98112549 -3.81698242 82.54452637 -4.875 83.125 C-7.06926083 84.36544256 -9.26326432 85.60634043 -11.45703125 86.84765625 C-12.57932129 87.47559082 -13.70161133 88.10352539 -14.85791016 88.75048828 C-19.96323567 91.62471392 -25.01044284 94.59600005 -30.0625 97.5625 C-39.51219271 103.08224184 -48.98915944 108.55399648 -58.47167969 114.01708984 C-69.7354725 120.50999878 -80.96302764 127.06442556 -92.1875 133.625 C-96.14535474 135.93832038 -100.10360663 138.25095749 -104.0625 140.5625 C-105.04968018 141.13895264 -106.03686035 141.71540527 -107.05395508 142.30932617 C-114.35361408 146.5670169 -121.67455381 150.78687673 -129 155 C-140.39964147 161.55944044 -151.72082387 168.24413466 -163.0234375 174.96875 C-164.04018555 175.56816406 -165.05693359 176.16757812 -166.10449219 176.78515625 C-168.24007278 178.05960473 -170.35967958 179.36106034 -172.46582031 180.68359375 C-173.52124023 181.33457031 -174.57666016 181.98554688 -175.6640625 182.65625 C-176.60588379 183.24986328 -177.54770508 183.84347656 -178.51806641 184.45507812 C-181.60617383 185.80849049 -183.02428373 185.63138016 -186.1875 184.625 C-187.75672602 171.34341944 -189.00203213 158.04484991 -190.10229492 144.71655273 C-190.37783077 141.4034623 -190.66450426 138.09144041 -190.95117188 134.77929688 C-191.12828765 132.65109844 -191.3047444 130.52284503 -191.48046875 128.39453125 C-191.61004219 126.92570244 -191.61004219 126.92570244 -191.74223328 125.42720032 C-192.53755001 115.47386871 -192.53755001 115.47386871 -191.1875 110.625 C-188.16667932 107.5942739 -184.63032531 105.59359841 -180.92578125 103.48046875 C-179.90274902 102.89386475 -178.8797168 102.30726074 -177.82568359 101.70288086 C-176.72820801 101.07905518 -175.63073242 100.45522949 -174.5 99.8125 C-173.33909425 99.14832421 -172.17845447 98.48368335 -171.01806641 97.81860352 C-168.60798023 96.43777596 -166.19676703 95.05894879 -163.78466797 93.68164062 C-158.20114834 90.49170148 -152.63199042 87.27685068 -147.0625 84.0625 C-145.45072876 83.1329248 -145.45072876 83.1329248 -143.80639648 82.18457031 C-132.57710106 75.70408282 -121.38081917 69.16736576 -110.1875 62.625 C-106.22964526 60.31167962 -102.27139337 57.99904251 -98.3125 55.6875 C-97.32531982 55.11104736 -96.33813965 54.53459473 -95.32104492 53.94067383 C-88.02138651 49.68298345 -80.70049394 45.46303948 -73.375 41.25 C-63.36000693 35.48868678 -53.41376643 29.61889074 -43.48706055 23.70703125 C-33.73439067 17.91463106 -23.89897092 12.27395053 -14.03369141 6.67602539 C-12.91913574 6.04301514 -11.80458008 5.41000488 -10.65625 4.7578125 C-9.67076172 4.19980957 -8.68527344 3.64180664 -7.66992188 3.06689453 C-1.84523687 -0.31632632 -1.84523687 -0.31632632 0 0 Z " fill="#5170FF" transform="translate(424.1875,288.375)"/>
<path d="M0 0 C1.72022107 1.72022107 1.41645454 4.07482073 1.6484375 6.4296875 C1.76541992 7.60128418 1.88240234 8.77288086 2.00292969 9.97998047 C2.12571289 11.26533691 2.24849609 12.55069336 2.375 13.875 C2.50419014 15.20850013 2.63342266 16.54199615 2.76269531 17.87548828 C3.11011323 21.48425994 3.44888615 25.09379887 3.78527832 28.70361328 C4.00406807 31.04350688 4.22594763 33.38309322 4.44824219 35.72265625 C4.82208928 39.67088317 5.18514816 43.61998204 5.54083252 47.56988525 C5.67931091 49.09597615 5.82050799 50.621823 5.96453857 52.1473999 C6.1670218 54.30333429 6.35828275 56.45999914 6.546875 58.6171875 C6.65870117 59.85065918 6.77052734 61.08413086 6.88574219 62.35498047 C7.01724644 66.55019107 6.91250635 69.88842234 6 74 C3.76855469 76.3034668 3.76855469 76.3034668 1 78 C0.15598633 78.5256958 -0.68802734 79.0513916 -1.55761719 79.59301758 C-2.46157227 80.10501709 -3.36552734 80.6170166 -4.296875 81.14453125 C-5.32490234 81.73105469 -6.35292969 82.31757813 -7.41210938 82.921875 C-8.51361328 83.54578125 -9.61511719 84.1696875 -10.75 84.8125 C-13.11128824 86.15942968 -15.47011459 87.51062257 -17.828125 88.86328125 C-18.42810303 89.20726959 -19.02808105 89.55125793 -19.64624023 89.90567017 C-25.6469026 93.35524286 -31.57685706 96.91919086 -37.5 100.5 C-47.02077413 106.24919818 -56.62167672 111.8421802 -66.26953125 117.375 C-73.73237621 121.66501866 -81.13106263 126.05083027 -88.5 130.5 C-96.94512178 135.59894145 -105.44234073 140.59228786 -114 145.5 C-122.59741398 150.43126683 -131.13642486 155.4461349 -139.625 160.5625 C-141.67307718 161.79313502 -143.7212541 163.02360409 -145.76953125 164.25390625 C-148.96951916 166.17613355 -152.16750281 168.10140698 -155.36083984 170.03466797 C-158.67105902 172.03505742 -161.99064248 174.01901346 -165.3125 176 C-166.32715332 176.61818604 -167.34180664 177.23637207 -168.38720703 177.87329102 C-169.79848877 178.70944946 -169.79848877 178.70944946 -171.23828125 179.5625 C-172.06368408 180.05878906 -172.88908691 180.55507813 -173.73950195 181.06640625 C-176 182 -176 182 -178.23510742 181.77734375 C-180 181 -180 181 -181 179 C-181.2336129 177.25943965 -181.41568357 175.51184678 -181.57250977 173.76269531 C-181.67253799 172.6668512 -181.77256622 171.57100708 -181.87562561 170.44195557 C-181.97983322 169.24939148 -182.08404083 168.05682739 -182.19140625 166.828125 C-182.30097153 165.59898376 -182.4105368 164.36984253 -182.52342224 163.10345459 C-182.81427875 159.82112958 -183.10090209 156.53846397 -183.38647461 153.25567627 C-183.67500874 149.96804801 -183.97452698 146.68140779 -184.27148438 143.39453125 C-184.4954536 140.85162071 -184.7187803 138.30865349 -184.94140625 135.765625 C-185.04763809 134.59735168 -185.15386993 133.42907837 -185.26332092 132.22540283 C-187.16709815 109.94688497 -187.16709815 109.94688497 -184.234375 105.0546875 C-179.3143945 101.92919264 -174.33855789 98.9685183 -169.25 96.125 C-166.88820317 94.78810246 -164.53001259 93.44490156 -162.171875 92.1015625 C-161.57189697 91.76066589 -160.97191895 91.41976929 -160.35375977 91.06854248 C-154.34250307 87.64495975 -148.41803503 84.08196857 -142.5 80.5 C-132.97956361 74.75025613 -123.3783096 69.15781196 -113.73046875 63.625 C-106.26762379 59.33498134 -98.86893737 54.94916973 -91.5 50.5 C-83.05487822 45.40105855 -74.55765927 40.40771214 -66 35.5 C-57.40258602 30.56873317 -48.86357514 25.5538651 -40.375 20.4375 C-38.32692282 19.20686498 -36.2787459 17.97639591 -34.23046875 16.74609375 C-31.03048084 14.82386645 -27.83249719 12.89859302 -24.63916016 10.96533203 C-21.32894098 8.96494258 -18.00935752 6.98098654 -14.6875 5 C-13.16552002 4.07272095 -13.16552002 4.07272095 -11.61279297 3.12670898 C-10.67193848 2.56927002 -9.73108398 2.01183105 -8.76171875 1.4375 C-7.93631592 0.94121094 -7.11091309 0.44492188 -6.26049805 -0.06640625 C-3.6473965 -1.1456265 -2.5855447 -1.04723681 0 0 Z " fill="#5170FF" transform="translate(261,128)"/>
<path d="M0 0 C1.73974609 0.72851562 1.73974609 0.72851562 2.73974609 1.72851562 C2.95560276 3.10379796 3.11043269 4.48873729 3.23963928 5.87484741 C3.32515549 6.76905396 3.41067169 7.6632605 3.4987793 8.58456421 C3.58869141 9.5735672 3.67860352 10.56257019 3.77124023 11.58154297 C3.91776283 13.13533661 3.91776283 13.13533661 4.06724548 14.72052002 C4.39104866 18.16808647 4.70818555 21.61622895 5.02490234 25.06445312 C5.24742772 27.45808173 5.47020427 29.851687 5.69322205 32.24526978 C6.16099836 37.2773386 6.62544376 42.30970142 7.08764648 47.34228516 C7.67855783 53.77298739 8.27799917 60.20286002 8.88004398 66.63252831 C9.34264848 71.58406498 9.80045197 76.53603683 10.25686455 81.48814774 C10.47582315 83.8572046 10.69629932 86.22612174 10.91835213 88.59489059 C11.22967741 91.92334491 11.53446346 95.25233839 11.83764648 98.58154297 C11.92958282 99.55030365 12.02151917 100.51906433 12.11624146 101.5171814 C12.69175885 107.93656751 12.84119708 114.28478702 12.73974609 120.72851562 C8.87193915 120.8304646 7.03001612 120.66286942 3.91162109 118.30664062 C3.20320068 117.78191162 2.49478027 117.25718262 1.76489258 116.71655273 C1.01409424 116.14300049 0.2632959 115.56944824 -0.51025391 114.97851562 C-2.12804561 113.77575345 -3.74655192 112.57395195 -5.36572266 111.37304688 C-6.59234619 110.45579834 -6.59234619 110.45579834 -7.84375 109.52001953 C-11.45970062 106.83929154 -15.13729878 104.24992199 -18.82275391 101.66601562 C-20.23167608 100.6739247 -21.6405302 99.68173712 -23.04931641 98.68945312 C-24.45287135 97.70234471 -25.8565171 96.7153654 -27.26025391 95.72851562 C-36.71909779 89.07879475 -46.14229539 82.38586204 -55.50537109 75.60180664 C-62.12913242 70.80844693 -68.80285339 66.08810395 -75.49072266 61.38476562 C-76.42730713 60.71960938 -76.42730713 60.71960938 -77.3828125 60.04101562 C-78.66346183 59.14572684 -79.95897964 58.27142758 -81.26660156 57.41601562 C-86.11506686 54.17959412 -86.11506686 54.17959412 -86.95239258 51.578125 C-87.05398682 50.96775391 -87.15558105 50.35738281 -87.26025391 49.72851562 C-83.85191744 46.88299523 -80.42558406 44.54639961 -76.56103516 42.36523438 C-74.89113525 41.41765259 -74.89113525 41.41765259 -73.1875 40.45092773 C-72.30514679 39.95422073 -72.30514679 39.95422073 -71.40496826 39.44747925 C-68.89339076 38.03356126 -66.38732875 36.60998912 -63.88079834 35.18714905 C-62.58408855 34.45124019 -61.2870889 33.71584186 -59.98980713 32.98094177 C-53.68588189 29.40893179 -47.40884561 25.79100345 -41.13525391 22.16601562 C-40.08813232 21.56362061 -39.04101074 20.96122559 -37.9621582 20.34057617 C-32.90055958 17.42601685 -27.85095353 14.49402709 -22.83016968 11.50978088 C-20.4310227 10.08527864 -18.02659035 8.66983967 -15.62164307 7.25515747 C-13.92022793 6.24919405 -12.22661547 5.23007086 -10.53320312 4.21069336 C-9.50727051 3.60813721 -8.48133789 3.00558105 -7.42431641 2.38476562 C-6.52148926 1.84658203 -5.61866211 1.30839844 -4.68847656 0.75390625 C-2.26025391 -0.27148438 -2.26025391 -0.27148438 0 0 Z " fill="#FF914C" transform="translate(173.26025390625,281.271484375)"/>
<path d="M0 0 C4.63366359 1.63435421 8.59595802 4.05132534 12.75 6.625 C13.522229 7.1001001 14.29445801 7.5752002 15.09008789 8.06469727 C24.09133592 13.63017942 32.98691456 19.3624247 41.890625 25.08203125 C47.14122623 28.45380485 52.40806752 31.79859701 57.6875 35.125 C59.19793752 36.07809196 60.70835402 37.03121721 62.21875 37.984375 C64.75187015 39.58255131 67.28557967 41.1797728 69.8203125 42.77539062 C72.77812128 44.63865407 75.73300471 46.50648801 78.6875 48.375 C79.59653076 48.94621582 80.50556152 49.51743164 81.44213867 50.10595703 C86.81768595 53.51148415 91.97728037 57.09177086 97 61 C96.88867188 62.7487793 96.88867188 62.7487793 96 65 C93.94051778 66.52093292 91.99677713 67.76913921 89.78125 69.01953125 C88.81981583 69.58251671 88.81981583 69.58251671 87.83895874 70.15687561 C85.73252 71.38707691 83.61640628 72.59954128 81.5 73.8125 C80.03452269 74.66481065 78.56984751 75.51850191 77.10595703 76.37353516 C74.14401611 78.10258758 71.17905624 79.826277 68.21191406 81.54638672 C62.39477056 84.92604084 56.63439754 88.39795862 50.875 91.875 C42.89260389 96.67579132 34.89405141 101.4481747 26.875 106.1875 C25.98022949 106.71649902 25.08545898 107.24549805 24.16357422 107.79052734 C22.51937918 108.76064971 20.87227059 109.7258587 19.22167969 110.68505859 C17.78789995 111.53366713 16.3700182 112.41001948 14.97363281 113.31884766 C13.1328125 114.48828125 13.1328125 114.48828125 10 116 C7.85264397 115.3483429 7.85264397 115.3483429 6 114 C5.38623238 112.17350769 5.38623238 112.17350769 5.22488403 109.93823242 C5.1552841 109.10407303 5.08568417 108.26991364 5.01397514 107.41047668 C4.95796198 106.50544907 4.90194881 105.60042145 4.84423828 104.66796875 C4.77105944 103.7270488 4.69788059 102.78612885 4.62248421 101.81669617 C4.39777919 98.87877843 4.19841228 95.93979555 4 93 C3.86998142 91.2754014 3.73804694 89.55094588 3.60394287 87.82666016 C3.20716235 82.65701538 2.84784888 77.48511163 2.4921875 72.3125 C2.36070743 70.42633815 2.22904041 68.54018932 2.09719849 66.65405273 C1.82500592 62.75190449 1.55460536 58.84963792 1.28564453 54.94726562 C0.94125977 49.95183503 0.59288408 44.95669218 0.24328423 39.96162415 C-0.02741599 36.08928562 -0.29638229 32.21682823 -0.564785 28.34432983 C-0.69270992 26.50073061 -0.82109436 24.65716321 -0.94995499 22.81362915 C-1.12867138 20.25216998 -1.30512992 17.69056515 -1.48095703 15.12890625 C-1.53391937 14.37571106 -1.58688171 13.62251587 -1.64144897 12.84649658 C-2.19789418 4.66088849 -2.19789418 4.66088849 -2 2 C-1.34 1.34 -0.68 0.68 0 0 Z " fill="#5170FF" transform="translate(310,101)"/>
</svg>
